<?xml version="1.0" encoding="UTF-8"?>
<svg xmlns="http://www.w3.org/2000/svg" xmlns:xlink="http://www.w3.org/1999/xlink" width="24px" height="24px" viewBox="0 0 24 24" version="1.1">
<g id="surface1">
<path style=" stroke:none;fill-rule:evenodd;clip-rule=evenodd;fill:currentColor;fill-opacity:1;" d="M 11.902344 4.054688 C 11.414062 4.210938 10.953125 4.683594 9.828125 6.179688 C 8.957031 7.339844 8.398438 7.96875 7.945312 8.304688 C 7.042969 8.972656 6.65625 10.101562 7.0625 10.90625 C 7.234375 11.257812 8.476562 12.609375 8.855469 12.863281 C 8.902344 12.894531 9.039062 13.007812 9.15625 13.113281 C 9.527344 13.449219 9.738281 13.511719 10.511719 13.511719 L 10.957031 13.511719 L 11.160156 13.414062 C 11.75 13.128906 11.882812 12.742188 11.59375 12.148438 C 11.242188 11.433594 11.007812 11.199219 10.230469 10.792969 C 9.761719 10.546875 9.714844 10.492188 9.699219 10.199219 C 9.683594 9.847656 9.710938 9.8125 10.535156 9.1875 C 11.261719 8.636719 12.226562 7.589844 12.628906 6.917969 C 13.351562 5.707031 13.484375 4.742188 13 4.257812 C 12.742188 4.003906 12.308594 3.921875 11.902344 4.054688 M 11.914062 8.496094 C 11.503906 8.558594 11.332031 8.960938 11.53125 9.398438 C 11.640625 9.636719 12.085938 10.046875 12.527344 10.308594 C 12.613281 10.359375 12.808594 10.484375 12.960938 10.585938 C 13.113281 10.6875 13.316406 10.808594 13.410156 10.855469 C 13.84375 11.074219 13.730469 11.339844 12.824219 12.269531 C 12.582031 12.515625 12.382812 12.730469 12.382812 12.746094 C 12.382812 12.789062 9.738281 15.441406 9.570312 15.566406 C 9.40625 15.6875 8.914062 16.140625 8.6875 16.378906 C 8.191406 16.898438 8.066406 17.039062 7.992188 17.136719 C 7.945312 17.195312 7.855469 17.304688 7.789062 17.378906 C 7.675781 17.5 7.402344 17.84375 7.148438 18.179688 C 6.089844 19.578125 6.265625 19.980469 7.933594 19.980469 L 8.628906 19.980469 L 8.789062 19.902344 C 8.984375 19.804688 9.1875 19.59375 9.34375 19.328125 C 9.5 19.054688 9.789062 18.671875 10.019531 18.433594 C 10.125 18.320312 10.261719 18.164062 10.320312 18.085938 C 10.375 18.003906 10.601562 17.757812 10.824219 17.53125 C 11.042969 17.308594 11.261719 17.070312 11.308594 17.003906 C 11.445312 16.820312 12.121094 16.160156 12.199219 16.140625 C 12.289062 16.117188 12.339844 16.15625 12.5 16.382812 C 12.691406 16.65625 12.941406 16.972656 13.140625 17.183594 C 13.234375 17.28125 13.34375 17.414062 13.386719 17.472656 C 13.425781 17.53125 13.515625 17.632812 13.582031 17.699219 C 13.652344 17.765625 13.746094 17.875 13.796875 17.941406 C 13.84375 18.007812 13.941406 18.128906 14.011719 18.214844 C 14.175781 18.410156 14.441406 18.8125 14.574219 19.0625 C 14.789062 19.480469 15.222656 19.851562 15.601562 19.941406 C 15.863281 20.007812 17.011719 20.015625 17.179688 19.957031 C 17.636719 19.796875 17.640625 19.320312 17.195312 18.773438 C 17.121094 18.683594 17.015625 18.550781 16.960938 18.480469 C 16.90625 18.40625 16.796875 18.277344 16.714844 18.191406 C 16.519531 17.988281 16.347656 17.757812 16.164062 17.460938 C 15.3125 16.074219 15.054688 15.738281 14.640625 15.46875 C 14.378906 15.296875 13.929688 15.144531 13.644531 15.128906 C 13.175781 15.101562 13.171875 15.035156 13.609375 14.605469 C 13.753906 14.457031 13.964844 14.226562 14.074219 14.089844 C 14.308594 13.792969 15.335938 12.765625 15.601562 12.5625 C 16.027344 12.234375 16.664062 11.464844 16.765625 11.152344 C 16.824219 10.980469 16.804688 10.664062 16.722656 10.488281 C 16.578125 10.167969 16.097656 9.503906 15.800781 9.210938 C 15.210938 8.632812 15.039062 8.566406 14.09375 8.566406 C 13.578125 8.566406 13.390625 8.558594 13.273438 8.53125 C 13.09375 8.488281 12.117188 8.460938 11.914062 8.496094 "/>
<!-- <path style=" stroke:none;fill-rule:evenodd;clip-rule=evenodd;fill:currentColor;fill-opacity:1;" d="M 2.464844 0.0273438 C 2.441406 0.0390625 2.363281 0.0703125 2.289062 0.0976562 C 2.214844 0.125 2.117188 0.167969 2.078125 0.199219 C 2.039062 0.230469 1.949219 0.285156 1.878906 0.320312 C 1.398438 0.5625 0.5625 1.398438 0.320312 1.882812 C 0.285156 1.949219 0.234375 2.035156 0.203125 2.074219 C 0.171875 2.117188 0.117188 2.222656 0.078125 2.316406 L 0.0117188 2.484375 L 0.0078125 11.972656 L 0 21.464844 L 0.0742188 21.660156 C 0.113281 21.765625 0.175781 21.894531 0.214844 21.949219 C 0.25 22 0.304688 22.089844 0.335938 22.148438 C 0.5625 22.597656 1.40625 23.4375 1.851562 23.667969 C 1.910156 23.695312 2 23.75 2.054688 23.789062 C 2.105469 23.824219 2.234375 23.890625 2.339844 23.929688 L 2.53125 24 L 21.46875 24 L 21.660156 23.929688 C 21.765625 23.890625 21.894531 23.824219 21.949219 23.785156 C 22.003906 23.746094 22.078125 23.703125 22.113281 23.691406 C 22.480469 23.550781 23.550781 22.480469 23.6875 22.113281 C 23.703125 22.078125 23.746094 22.003906 23.785156 21.949219 C 23.824219 21.894531 23.890625 21.765625 23.929688 21.660156 L 24 21.46875 L 24 2.53125 L 23.929688 2.339844 C 23.890625 2.234375 23.824219 2.105469 23.789062 2.054688 C 23.75 2 23.695312 1.910156 23.667969 1.851562 C 23.4375 1.40625 22.59375 0.558594 22.148438 0.335938 C 22.089844 0.304688 22.007812 0.253906 21.964844 0.222656 C 21.921875 0.191406 21.792969 0.128906 21.675781 0.0820312 L 21.46875 0 L 11.988281 0 C 5.527344 0 2.496094 0.0078125 2.464844 0.0273438 M 12.710938 4.046875 C 12.902344 4.113281 13.15625 4.382812 13.222656 4.59375 C 13.570312 5.71875 12.339844 7.820312 10.535156 9.1875 C 9.710938 9.8125 9.683594 9.847656 9.699219 10.199219 C 9.714844 10.492188 9.761719 10.546875 10.230469 10.792969 C 11.007812 11.199219 11.242188 11.433594 11.59375 12.148438 C 11.882812 12.742188 11.75 13.128906 11.160156 13.414062 L 10.957031 13.511719 L 10.511719 13.511719 C 9.738281 13.511719 9.527344 13.449219 9.15625 13.113281 C 9.039062 13.007812 8.902344 12.894531 8.855469 12.863281 C 8.476562 12.609375 7.234375 11.257812 7.0625 10.90625 C 6.65625 10.101562 7.042969 8.972656 7.945312 8.304688 C 8.398438 7.96875 8.957031 7.339844 9.828125 6.179688 C 10.953125 4.683594 11.414062 4.210938 11.902344 4.054688 C 12.085938 3.996094 12.542969 3.992188 12.710938 4.046875 M 13.273438 8.53125 C 13.390625 8.558594 13.578125 8.566406 14.09375 8.566406 C 15.039062 8.566406 15.210938 8.632812 15.800781 9.210938 C 16.097656 9.503906 16.578125 10.167969 16.722656 10.488281 C 16.804688 10.664062 16.824219 10.980469 16.765625 11.152344 C 16.664062 11.464844 16.027344 12.234375 15.601562 12.5625 C 15.335938 12.765625 14.308594 13.792969 14.074219 14.089844 C 13.964844 14.226562 13.753906 14.457031 13.609375 14.605469 C 13.171875 15.035156 13.175781 15.101562 13.644531 15.128906 C 13.929688 15.144531 14.378906 15.296875 14.640625 15.46875 C 15.054688 15.738281 15.3125 16.074219 16.164062 17.460938 C 16.347656 17.757812 16.519531 17.988281 16.714844 18.191406 C 16.796875 18.277344 16.90625 18.40625 16.960938 18.480469 C 17.015625 18.550781 17.121094 18.683594 17.195312 18.773438 C 17.640625 19.320312 17.636719 19.796875 17.179688 19.957031 C 17.011719 20.015625 15.863281 20.007812 15.601562 19.941406 C 15.222656 19.851562 14.789062 19.480469 14.574219 19.0625 C 14.441406 18.8125 14.175781 18.410156 14.011719 18.214844 C 13.941406 18.128906 13.84375 18.007812 13.796875 17.941406 C 13.746094 17.875 13.652344 17.765625 13.582031 17.699219 C 13.515625 17.632812 13.425781 17.53125 13.386719 17.472656 C 13.34375 17.414062 13.234375 17.28125 13.140625 17.183594 C 12.941406 16.972656 12.691406 16.65625 12.5 16.382812 C 12.339844 16.15625 12.289062 16.117188 12.199219 16.140625 C 12.121094 16.160156 11.445312 16.820312 11.308594 17.003906 C 11.261719 17.070312 11.042969 17.308594 10.824219 17.53125 C 10.601562 17.757812 10.375 18.003906 10.320312 18.085938 C 10.261719 18.164062 10.125 18.320312 10.019531 18.433594 C 9.789062 18.671875 9.5 19.054688 9.34375 19.328125 C 9.1875 19.59375 8.984375 19.804688 8.789062 19.902344 L 8.628906 19.980469 L 7.933594 19.980469 C 6.265625 19.980469 6.089844 19.578125 7.148438 18.179688 C 7.402344 17.84375 7.675781 17.5 7.789062 17.378906 C 7.855469 17.304688 7.945312 17.195312 7.992188 17.136719 C 8.066406 17.039062 8.191406 16.898438 8.6875 16.378906 C 8.914062 16.140625 9.40625 15.6875 9.570312 15.566406 C 9.738281 15.441406 12.382812 12.789062 12.382812 12.746094 C 12.382812 12.730469 12.582031 12.515625 12.824219 12.269531 C 13.730469 11.339844 13.84375 11.074219 13.410156 10.855469 C 13.316406 10.808594 13.113281 10.6875 12.960938 10.585938 C 12.808594 10.484375 12.613281 10.359375 12.527344 10.308594 C 11.5 9.699219 11.117188 8.863281 11.71875 8.550781 C 11.886719 8.464844 12.9375 8.453125 13.273438 8.53125 "/> -->
</g>
</svg>
